<svg id="SvgjsSvg1000" xmlns="http://www.w3.org/2000/svg" version="1.1" xmlns:xlink="http://www.w3.org/1999/xlink" xmlns:svgjs="http://svgjs.com/svgjs" width="75" height="132" viewBox="0 0 75 132"><title>Apple IPhone. Attribute as Freepik from Flaticon.com</title><desc>Created with Avocode.</desc><defs id="SvgjsDefs1001"></defs><path id="SvgjsPath1007" d="M429.36 1200H373.635C368.308 1200 364.003 1204.31 364.003 1209.62V1322.3899999999999C364.003 1327.6899999999998 368.308 1331.9999999999998 373.635 1331.9999999999998H429.355C434.682 1331.9999999999998 438.997 1327.6899999999998 438.997 1322.3899999999999V1209.62C439.002 1204.31 434.687 1200 429.36 1200ZM387.745 1205.84H415.26C415.955 1205.84 416.515 1206.8799999999999 416.515 1208.1599999999999C416.515 1209.4399999999998 415.955 1210.4799999999998 415.26 1210.4799999999998H387.745C387.05 1210.4799999999998 386.495 1209.4399999999998 386.495 1208.1599999999999C386.495 1206.8799999999999 387.05 1205.84 387.745 1205.84ZM401.502 1322.51C398.105 1322.51 395.345 1319.76 395.345 1316.37C395.345 1312.9799999999998 398.11 1310.2399999999998 401.502 1310.2399999999998C404.89 1310.2399999999998 407.65500000000003 1312.9899999999998 407.65500000000003 1316.37C407.65500000000003 1319.76 404.88500000000005 1322.51 401.502 1322.51ZM431.778 1301.49H371.22700000000003V1216.22H431.778Z " fill="#005494" fill-opacity="1" transform="matrix(1,0,0,1,-364,-1200)"></path></svg>