<svg id="SvgjsSvg1008" xmlns="http://www.w3.org/2000/svg" version="1.1" xmlns:xlink="http://www.w3.org/1999/xlink" xmlns:svgjs="http://svgjs.com/svgjs" width="192" height="149" viewBox="0 0 192 149"><title>Responsive Design For Modern Screens. Attribute as Freepik from Flaticon.com</title><desc>Created with Avocode.</desc><defs id="SvgjsDefs1009"></defs><path id="SvgjsPath1010" d="M707.049 1346.52H782.261V1235.44H707.049ZM746.242 1340.95C744.24 1340.95 742.6189999999999 1339.3400000000001 742.6189999999999 1337.38C742.6189999999999 1335.41 744.2399999999999 1333.8100000000002 746.242 1333.8100000000002C748.245 1333.8100000000002 749.8689999999999 1335.41 749.8689999999999 1337.38C749.8739999999999 1339.3400000000001 748.2449999999999 1340.95 746.242 1340.95ZM717.926 1246.15H771.393L771.389 1328.1000000000001H717.926ZM744.248 1208.92H864.778V1257.0800000000002H875.4V1198.4700000000003H733.6279999999999V1230.6900000000003H744.2479999999999ZM843 1291V1280H787V1291ZM848.457 1261.13V1344.7800000000002H898.971V1261.13ZM874.836 1264.6C875.51 1264.6 876.0550000000001 1265.1299999999999 876.0550000000001 1265.8C876.0550000000001 1266.46 875.5100000000001 1267 874.836 1267C874.1610000000001 1267 873.613 1266.46 873.613 1265.8C873.613 1265.1299999999999 874.1610000000001 1264.6 874.836 1264.6ZM867.571 1268.61H882.101V1269.76H867.571ZM874.358 1341.17C872.7529999999999 1341.17 871.444 1339.88 871.444 1338.3000000000002C871.444 1336.7200000000003 872.745 1335.4300000000003 874.358 1335.4300000000003C875.9639999999999 1335.4300000000003 877.2729999999999 1336.7200000000003 877.2729999999999 1338.3000000000002C877.2729999999999 1339.88 875.9639999999999 1341.17 874.358 1341.17ZM890.866 1331.32C877.747 1331.3999999999999 863.066 1331.4399999999998 856.562 1331.3899999999999V1273.87H890.866ZM787.109 1294.78V1301.12H824.5500000000001V1303.8899999999999H787.109V1309.62H842.966V1294.78Z " fill="#005494" fill-opacity="1" transform="matrix(1,0,0,1,-707,-1198)"></path></svg>